<mxfile host="app.diagrams.net" modified="2022-12-13T05:25:08.831Z" agent="5.0 (Windows NT 10.0; Win64; x64) AppleWebKit/537.36 (KHTML, like Gecko) Chrome/108.0.0.0 Safari/537.36 Edg/108.0.1462.46" etag="-nu6XB_ABs4Uz3JMVX16" version="20.6.2" type="github" pages="2">
  <diagram id="6a731a19-8d31-9384-78a2-239565b7b9f0" name="Page-1">
    <mxGraphModel dx="1037" dy="658" grid="1" gridSize="10" guides="1" tooltips="1" connect="1" arrows="1" fold="1" page="1" pageScale="1" pageWidth="827" pageHeight="1169" background="none" math="0" shadow="0">
      <root>
        <mxCell id="0" />
        <mxCell id="1" parent="0" />
        <mxCell id="lUL5NIdKTynWnAIXb0o7-2259" value="" style="points=[];aspect=fixed;html=1;align=center;shadow=0;dashed=0;image;image=img/lib/allied_telesis/buildings/Large_Building.svg;" vertex="1" parent="1">
          <mxGeometry x="182.7" y="557.6" width="75" height="75" as="geometry" />
        </mxCell>
        <mxCell id="lUL5NIdKTynWnAIXb0o7-2263" value="" style="points=[];aspect=fixed;html=1;align=center;shadow=0;dashed=0;image;image=img/lib/allied_telesis/buildings/Medium_Business_Building.svg;" vertex="1" parent="1">
          <mxGeometry x="510" y="410.00000000000006" width="54.6" height="70.19999999999999" as="geometry" />
        </mxCell>
        <mxCell id="lUL5NIdKTynWnAIXb0o7-2265" value="" style="points=[];aspect=fixed;html=1;align=center;shadow=0;dashed=0;image;image=img/lib/allied_telesis/buildings/Medium_Business_Building.svg;" vertex="1" parent="1">
          <mxGeometry x="520" y="560" width="54.6" height="70.19999999999999" as="geometry" />
        </mxCell>
        <mxCell id="lUL5NIdKTynWnAIXb0o7-2266" value="" style="points=[];aspect=fixed;html=1;align=center;shadow=0;dashed=0;image;image=img/lib/allied_telesis/buildings/Medium_Business_Building.svg;" vertex="1" parent="1">
          <mxGeometry x="527.7" y="720" width="54.6" height="70.19999999999999" as="geometry" />
        </mxCell>
        <mxCell id="lUL5NIdKTynWnAIXb0o7-2277" value="10.1.0.0/16" style="text;html=1;strokeColor=none;fillColor=none;align=center;verticalAlign=middle;whiteSpace=wrap;rounded=0;" vertex="1" parent="1">
          <mxGeometry x="577.1" y="420" width="60" height="30" as="geometry" />
        </mxCell>
        <mxCell id="lUL5NIdKTynWnAIXb0o7-2279" value="10.3.0.0/16" style="text;html=1;strokeColor=none;fillColor=none;align=center;verticalAlign=middle;whiteSpace=wrap;rounded=0;" vertex="1" parent="1">
          <mxGeometry x="612.5" y="755.1" width="60" height="30" as="geometry" />
        </mxCell>
        <mxCell id="lUL5NIdKTynWnAIXb0o7-2280" value="10.2.0.0/16" style="text;html=1;strokeColor=none;fillColor=none;align=center;verticalAlign=middle;whiteSpace=wrap;rounded=0;" vertex="1" parent="1">
          <mxGeometry x="600" y="585" width="60" height="30" as="geometry" />
        </mxCell>
        <mxCell id="lUL5NIdKTynWnAIXb0o7-2281" value="10.1.0.0/16" style="text;html=1;strokeColor=none;fillColor=none;align=center;verticalAlign=middle;whiteSpace=wrap;rounded=0;" vertex="1" parent="1">
          <mxGeometry x="90" y="597.6" width="60" height="30" as="geometry" />
        </mxCell>
        <mxCell id="lUL5NIdKTynWnAIXb0o7-2288" value="Napoleon Office" style="text;html=1;strokeColor=none;fillColor=none;align=center;verticalAlign=middle;whiteSpace=wrap;rounded=0;" vertex="1" parent="1">
          <mxGeometry x="600" y="725.1" width="95" height="30" as="geometry" />
        </mxCell>
        <mxCell id="lUL5NIdKTynWnAIXb0o7-2289" value="Nashville Office" style="text;html=1;strokeColor=none;fillColor=none;align=center;verticalAlign=middle;whiteSpace=wrap;rounded=0;" vertex="1" parent="1">
          <mxGeometry x="587.5" y="560" width="95" height="30" as="geometry" />
        </mxCell>
        <mxCell id="lUL5NIdKTynWnAIXb0o7-2290" value="Chicago Office" style="text;html=1;strokeColor=none;fillColor=none;align=center;verticalAlign=middle;whiteSpace=wrap;rounded=0;" vertex="1" parent="1">
          <mxGeometry x="564.6" y="400" width="95" height="30" as="geometry" />
        </mxCell>
        <mxCell id="lUL5NIdKTynWnAIXb0o7-2291" value="Toledo HQ" style="text;html=1;strokeColor=none;fillColor=none;align=center;verticalAlign=middle;whiteSpace=wrap;rounded=0;" vertex="1" parent="1">
          <mxGeometry x="80" y="567.6" width="95" height="30" as="geometry" />
        </mxCell>
        <mxCell id="lUL5NIdKTynWnAIXb0o7-2292" value="" style="endArrow=none;html=1;rounded=0;entryX=-0.015;entryY=0.436;entryDx=0;entryDy=0;entryPerimeter=0;elbow=vertical;" edge="1" parent="1" source="lUL5NIdKTynWnAIXb0o7-2259" target="lUL5NIdKTynWnAIXb0o7-2263">
          <mxGeometry width="50" height="50" relative="1" as="geometry">
            <mxPoint x="180" y="420" as="sourcePoint" />
            <mxPoint x="230" y="370" as="targetPoint" />
          </mxGeometry>
        </mxCell>
        <mxCell id="lUL5NIdKTynWnAIXb0o7-2293" value="" style="endArrow=none;html=1;rounded=0;elbow=vertical;" edge="1" parent="1" source="lUL5NIdKTynWnAIXb0o7-2259" target="lUL5NIdKTynWnAIXb0o7-2265">
          <mxGeometry width="50" height="50" relative="1" as="geometry">
            <mxPoint x="267.70000000000005" y="583.4493649053891" as="sourcePoint" />
            <mxPoint x="519.181" y="450.6071999999999" as="targetPoint" />
          </mxGeometry>
        </mxCell>
        <mxCell id="lUL5NIdKTynWnAIXb0o7-2294" value="" style="endArrow=none;html=1;rounded=0;elbow=vertical;" edge="1" parent="1" source="lUL5NIdKTynWnAIXb0o7-2259" target="lUL5NIdKTynWnAIXb0o7-2266">
          <mxGeometry width="50" height="50" relative="1" as="geometry">
            <mxPoint x="150" y="710" as="sourcePoint" />
            <mxPoint x="200" y="660" as="targetPoint" />
          </mxGeometry>
        </mxCell>
      </root>
    </mxGraphModel>
  </diagram>
  <diagram id="8llO-hsW2GmZsJX4cMXf" name="Layer 1">
    <mxGraphModel dx="1037" dy="658" grid="1" gridSize="10" guides="1" tooltips="1" connect="1" arrows="1" fold="1" page="1" pageScale="1" pageWidth="850" pageHeight="1100" math="0" shadow="0">
      <root>
        <mxCell id="0" />
        <mxCell id="1" parent="0" />
        <mxCell id="psQ3dbmBnd6W-dBNOQSG-21" style="edgeStyle=none;rounded=0;orthogonalLoop=1;jettySize=auto;html=1;exitX=0.5;exitY=0;exitDx=0;exitDy=0;exitPerimeter=0;strokeWidth=2;endArrow=none;endFill=0;elbow=vertical;" edge="1" parent="1" source="psQ3dbmBnd6W-dBNOQSG-1" target="psQ3dbmBnd6W-dBNOQSG-20">
          <mxGeometry relative="1" as="geometry" />
        </mxCell>
        <mxCell id="psQ3dbmBnd6W-dBNOQSG-1" value="" style="sketch=0;points=[[0.015,0.015,0],[0.985,0.015,0],[0.985,0.985,0],[0.015,0.985,0],[0.25,0,0],[0.5,0,0],[0.75,0,0],[1,0.25,0],[1,0.5,0],[1,0.75,0],[0.75,1,0],[0.5,1,0],[0.25,1,0],[0,0.75,0],[0,0.5,0],[0,0.25,0]];verticalLabelPosition=bottom;html=1;verticalAlign=top;aspect=fixed;align=center;pointerEvents=1;shape=mxgraph.cisco19.rect;prIcon=firewall;fillColor=#FAFAFA;strokeColor=#005073;" vertex="1" parent="1">
          <mxGeometry x="391" y="470" width="64" height="50" as="geometry" />
        </mxCell>
        <mxCell id="psQ3dbmBnd6W-dBNOQSG-4" style="rounded=0;orthogonalLoop=1;jettySize=auto;html=1;exitX=0.5;exitY=0;exitDx=0;exitDy=0;exitPerimeter=0;entryX=0.5;entryY=1;entryDx=0;entryDy=0;entryPerimeter=0;elbow=vertical;endArrow=none;endFill=0;shape=link;" edge="1" parent="1" source="psQ3dbmBnd6W-dBNOQSG-2" target="psQ3dbmBnd6W-dBNOQSG-1">
          <mxGeometry relative="1" as="geometry" />
        </mxCell>
        <mxCell id="psQ3dbmBnd6W-dBNOQSG-2" value="" style="sketch=0;points=[[0.015,0.015,0],[0.985,0.015,0],[0.985,0.985,0],[0.015,0.985,0],[0.25,0,0],[0.5,0,0],[0.75,0,0],[1,0.25,0],[1,0.5,0],[1,0.75,0],[0.75,1,0],[0.5,1,0],[0.25,1,0],[0,0.75,0],[0,0.5,0],[0,0.25,0]];verticalLabelPosition=bottom;html=1;verticalAlign=top;aspect=fixed;align=center;pointerEvents=1;shape=mxgraph.cisco19.rect;prIcon=l3_switch;fillColor=#FAFAFA;strokeColor=#005073;" vertex="1" parent="1">
          <mxGeometry x="389.75" y="600" width="66.5" height="66.5" as="geometry" />
        </mxCell>
        <mxCell id="psQ3dbmBnd6W-dBNOQSG-12" style="edgeStyle=none;rounded=0;orthogonalLoop=1;jettySize=auto;html=1;exitX=0.5;exitY=0;exitDx=0;exitDy=0;exitPerimeter=0;entryX=0.5;entryY=1;entryDx=0;entryDy=0;entryPerimeter=0;endArrow=none;endFill=0;elbow=vertical;" edge="1" parent="1" source="psQ3dbmBnd6W-dBNOQSG-8" target="psQ3dbmBnd6W-dBNOQSG-2">
          <mxGeometry relative="1" as="geometry" />
        </mxCell>
        <mxCell id="psQ3dbmBnd6W-dBNOQSG-8" value="" style="points=[[0.03,0.03,0],[0.5,0,0],[0.97,0.03,0],[1,0.4,0],[0.97,0.745,0],[0.5,1,0],[0.03,0.745,0],[0,0.4,0]];verticalLabelPosition=bottom;sketch=0;html=1;verticalAlign=top;aspect=fixed;align=center;pointerEvents=1;shape=mxgraph.cisco19.workstation;fillColor=#005073;strokeColor=none;" vertex="1" parent="1">
          <mxGeometry x="243" y="770" width="50" height="40" as="geometry" />
        </mxCell>
        <mxCell id="psQ3dbmBnd6W-dBNOQSG-13" style="edgeStyle=none;rounded=0;orthogonalLoop=1;jettySize=auto;html=1;exitX=0.5;exitY=0;exitDx=0;exitDy=0;exitPerimeter=0;entryX=0.5;entryY=1;entryDx=0;entryDy=0;entryPerimeter=0;endArrow=none;endFill=0;elbow=vertical;" edge="1" parent="1" source="psQ3dbmBnd6W-dBNOQSG-9" target="psQ3dbmBnd6W-dBNOQSG-2">
          <mxGeometry relative="1" as="geometry" />
        </mxCell>
        <mxCell id="psQ3dbmBnd6W-dBNOQSG-9" value="" style="points=[[0.03,0.03,0],[0.5,0,0],[0.97,0.03,0],[1,0.4,0],[0.97,0.745,0],[0.5,1,0],[0.03,0.745,0],[0,0.4,0]];verticalLabelPosition=bottom;sketch=0;html=1;verticalAlign=top;aspect=fixed;align=center;pointerEvents=1;shape=mxgraph.cisco19.workstation;fillColor=#005073;strokeColor=none;" vertex="1" parent="1">
          <mxGeometry x="353" y="770" width="50" height="40" as="geometry" />
        </mxCell>
        <mxCell id="psQ3dbmBnd6W-dBNOQSG-14" style="edgeStyle=none;rounded=0;orthogonalLoop=1;jettySize=auto;html=1;exitX=0.5;exitY=0;exitDx=0;exitDy=0;exitPerimeter=0;entryX=0.5;entryY=1;entryDx=0;entryDy=0;entryPerimeter=0;endArrow=none;endFill=0;elbow=vertical;" edge="1" parent="1" source="psQ3dbmBnd6W-dBNOQSG-10" target="psQ3dbmBnd6W-dBNOQSG-2">
          <mxGeometry relative="1" as="geometry">
            <mxPoint x="523" y="650" as="targetPoint" />
          </mxGeometry>
        </mxCell>
        <mxCell id="psQ3dbmBnd6W-dBNOQSG-10" value="" style="points=[[0.03,0.03,0],[0.5,0,0],[0.97,0.03,0],[1,0.4,0],[0.97,0.745,0],[0.5,1,0],[0.03,0.745,0],[0,0.4,0]];verticalLabelPosition=bottom;sketch=0;html=1;verticalAlign=top;aspect=fixed;align=center;pointerEvents=1;shape=mxgraph.cisco19.workstation;fillColor=#005073;strokeColor=none;" vertex="1" parent="1">
          <mxGeometry x="468" y="770" width="50" height="40" as="geometry" />
        </mxCell>
        <mxCell id="psQ3dbmBnd6W-dBNOQSG-15" style="edgeStyle=none;rounded=0;orthogonalLoop=1;jettySize=auto;html=1;exitX=0.5;exitY=0;exitDx=0;exitDy=0;exitPerimeter=0;entryX=0.5;entryY=1;entryDx=0;entryDy=0;entryPerimeter=0;endArrow=none;endFill=0;elbow=vertical;" edge="1" parent="1" source="psQ3dbmBnd6W-dBNOQSG-11" target="psQ3dbmBnd6W-dBNOQSG-2">
          <mxGeometry relative="1" as="geometry">
            <mxPoint x="523" y="650" as="targetPoint" />
          </mxGeometry>
        </mxCell>
        <mxCell id="psQ3dbmBnd6W-dBNOQSG-11" value="" style="points=[[0.03,0.03,0],[0.5,0,0],[0.97,0.03,0],[1,0.4,0],[0.97,0.745,0],[0.5,1,0],[0.03,0.745,0],[0,0.4,0]];verticalLabelPosition=bottom;sketch=0;html=1;verticalAlign=top;aspect=fixed;align=center;pointerEvents=1;shape=mxgraph.cisco19.workstation;fillColor=#005073;strokeColor=none;" vertex="1" parent="1">
          <mxGeometry x="558" y="770" width="50" height="40" as="geometry" />
        </mxCell>
        <mxCell id="psQ3dbmBnd6W-dBNOQSG-20" value="ISP" style="ellipse;shape=cloud;whiteSpace=wrap;html=1;" vertex="1" parent="1">
          <mxGeometry x="363" y="320" width="120" height="80" as="geometry" />
        </mxCell>
        <mxCell id="psQ3dbmBnd6W-dBNOQSG-22" value="Switch Stack" style="text;html=1;strokeColor=none;fillColor=none;align=center;verticalAlign=middle;whiteSpace=wrap;rounded=0;" vertex="1" parent="1">
          <mxGeometry x="455" y="618.25" width="60" height="30" as="geometry" />
        </mxCell>
      </root>
    </mxGraphModel>
  </diagram>
</mxfile>
